<svg xmlns="http://www.w3.org/2000/svg" class="logo" viewBox="0 0 156 45" width="156" height="45" xmlns:xlink="http://www.w3.org/1999/xlink"><defs><path id="a" d="M 0 0 H 155.82 v 44.394 H 0 Z" /></defs><g fill="none" fill-rule="evenodd" transform="translate(0 0.492)"><mask id="b" fill="#fff"><use xlink:href="#a" /></mask><path fill="#000" mask="url(&quot;#b&quot;)" d="M 129.448 37.708 c 0 0.121 -0.1 0.22 -0.22 0.22 h -1.25 c -0.12 0 -0.22 -0.099 -0.22 -0.22 v -0.483 c 0 -0.121 0.1 -0.22 0.22 -0.22 h 1.25 a 0.22 0.22 0 0 1 0.22 0.22 v 0.483 Z m 1.47 -0.703 c 0.12 0 0.22 -0.1 0.22 -0.22 V 36.3 c 0 -0.121 0.099 -0.22 0.22 -0.22 h 0.404 c 0.122 0 0.22 -0.1 0.22 -0.22 v -0.483 c 0 -0.122 0.1 -0.22 0.221 -0.22 h 0.404 c 0.121 0 0.22 -0.1 0.22 -0.22 v -0.484 c 0 -0.121 0.1 -0.22 0.22 -0.22 h 0.405 c 0.121 0 0.22 -0.1 0.22 -0.22 v -0.484 c 0 -0.121 0.1 -0.22 0.22 -0.22 h 0.405 c 0.121 0 0.22 -0.1 0.22 -0.22 v -0.483 c 0 -0.121 0.1 -0.22 0.22 -0.22 h 0.405 c 0.121 0 0.22 -0.1 0.22 -0.22 v -0.484 c 0 -0.121 0.1 -0.22 0.22 -0.22 h 0.405 c 0.12 0 0.22 -0.1 0.22 -0.22 v -0.484 a 0.22 0.22 0 0 0 -0.22 -0.22 h -2.94 a 0.22 0.22 0 0 0 -0.22 0.22 v 0.483 c 0 0.122 -0.099 0.22 -0.22 0.22 h -0.404 a 0.22 0.22 0 0 0 -0.22 0.221 v 0.483 c 0 0.121 -0.1 0.22 -0.22 0.22 h -0.405 a 0.22 0.22 0 0 0 -0.22 0.221 v 0.483 c 0 0.12 -0.1 0.22 -0.22 0.22 h -0.405 a 0.22 0.22 0 0 0 -0.22 0.22 v 0.483 c 0 0.121 -0.1 0.22 -0.22 0.22 h -0.405 c -0.12 0 -0.22 0.1 -0.22 0.22 v 0.484 c 0 0.121 -0.1 0.22 -0.22 0.22 h -0.404 a 0.22 0.22 0 0 0 -0.22 0.22 v 0.484 c 0 0.12 -0.1 0.22 -0.221 0.22 h -0.404 c -0.122 0 -0.22 -0.1 -0.22 -0.22 v -9.72 a 0.22 0.22 0 0 0 -0.221 -0.22 h -2.094 a 0.22 0.22 0 0 0 -0.22 0.22 v 18.032 c 0 0.122 0.099 0.22 0.22 0.22 h 2.094 c 0.121 0 0.22 -0.098 0.22 -0.22 v -5.1 c 0 -0.122 0.1 -0.221 0.22 -0.221 h 0.405 c 0.121 0 0.22 0.099 0.22 0.22 v 0.483 c 0 0.122 0.1 0.22 0.22 0.22 h 0.405 a 0.22 0.22 0 0 1 0.22 0.221 v 0.483 c 0 0.121 0.1 0.22 0.22 0.22 h 0.405 a 0.22 0.22 0 0 1 0.22 0.22 v 0.483 c 0 0.121 0.1 0.22 0.22 0.22 h 0.404 a 0.22 0.22 0 0 1 0.22 0.221 v 0.483 c 0 0.121 0.1 0.22 0.221 0.22 h 0.404 a 0.22 0.22 0 0 1 0.22 0.22 v 0.484 c 0 0.121 0.1 0.22 0.221 0.22 h 0.404 c 0.121 0 0.22 0.1 0.22 0.22 v 0.483 c 0 0.122 0.1 0.22 0.22 0.22 h 2.94 c 0.12 0 0.22 -0.098 0.22 -0.22 v -0.483 c 0 -0.12 -0.1 -0.22 -0.22 -0.22 h -0.404 c -0.122 0 -0.22 -0.099 -0.22 -0.22 v -0.483 a 0.22 0.22 0 0 0 -0.221 -0.22 h -0.404 c -0.122 0 -0.22 -0.1 -0.22 -0.22 v -0.484 a 0.22 0.22 0 0 0 -0.221 -0.22 h -0.404 c -0.121 0 -0.22 -0.1 -0.22 -0.22 v -0.483 a 0.22 0.22 0 0 0 -0.22 -0.22 h -0.405 c -0.121 0 -0.22 -0.1 -0.22 -0.221 v -0.483 a 0.22 0.22 0 0 0 -0.22 -0.22 h -0.405 c -0.121 0 -0.22 -0.1 -0.22 -0.22 v -0.484 c 0 -0.121 -0.1 -0.22 -0.22 -0.22 h -0.405 c -0.121 0 -0.22 -0.1 -0.22 -0.22 v -0.483 a 0.22 0.22 0 0 0 -0.22 -0.22 h -0.405 c -0.12 0 -0.22 -0.1 -0.22 -0.221 v -0.483 c 0 -0.121 0.1 -0.22 0.22 -0.22 h 0.404 Z m 18.362 7.389 c -0.121 0 -0.22 -0.1 -0.22 -0.22 v -0.484 c 0 -0.12 -0.1 -0.22 -0.22 -0.22 h -0.405 c -0.12 0 -0.22 -0.099 -0.22 -0.22 v -0.483 a 0.22 0.22 0 0 0 -0.22 -0.22 h -0.405 c -0.12 0 -0.22 -0.1 -0.22 -0.22 V 40.92 c 0 -0.122 0.1 -0.22 0.22 -0.22 h 0.405 c 0.121 0 0.22 -0.1 0.22 -0.221 v -0.483 c 0 -0.121 0.1 -0.22 0.22 -0.22 h 0.405 a 0.22 0.22 0 0 1 0.22 0.22 v 0.483 c 0 0.121 0.099 0.22 0.22 0.22 h 0.405 a 0.22 0.22 0 0 1 0.22 0.22 v 0.483 c 0 0.121 0.099 0.22 0.22 0.22 h 0.404 a 0.22 0.22 0 0 1 0.22 0.221 v 0.483 c 0 0.121 0.1 0.22 0.221 0.22 h 1.25 c 0.12 0 0.22 -0.099 0.22 -0.22 v -0.483 c 0 -0.121 0.099 -0.22 0.22 -0.22 h 0.404 c 0.121 0 0.22 -0.1 0.22 -0.22 v -1.407 c 0 -0.121 -0.099 -0.22 -0.22 -0.22 h -0.404 c -0.121 0 -0.22 -0.1 -0.22 -0.22 v -0.484 c 0 -0.121 -0.1 -0.22 -0.22 -0.22 h -0.405 c -0.121 0 -0.22 -0.1 -0.22 -0.22 v -0.483 a 0.22 0.22 0 0 0 -0.22 -0.22 h -1.25 c -0.121 0 -0.22 -0.1 -0.22 -0.221 v -0.483 a 0.22 0.22 0 0 0 -0.22 -0.22 h -0.405 c -0.121 0 -0.22 -0.1 -0.22 -0.22 V 36.3 a 0.22 0.22 0 0 0 -0.22 -0.22 h -0.405 c -0.12 0 -0.22 -0.1 -0.22 -0.22 v -0.483 a 0.22 0.22 0 0 0 -0.22 -0.22 h -0.405 c -0.12 0 -0.22 -0.1 -0.22 -0.22 v -2.331 c 0 -0.121 0.1 -0.22 0.22 -0.22 h 0.405 c 0.121 0 0.22 -0.1 0.22 -0.22 v -0.484 c 0 -0.121 0.1 -0.22 0.22 -0.22 h 0.405 c 0.12 0 0.22 -0.1 0.22 -0.22 v -0.484 c 0 -0.121 0.099 -0.22 0.22 -0.22 h 4.629 c 0.12 0 0.22 0.099 0.22 0.22 v 0.483 c 0 0.122 0.1 0.22 0.22 0.22 h 0.405 c 0.12 0 0.22 0.1 0.22 0.221 v 2.33 c 0 0.121 -0.1 0.22 -0.22 0.22 h -1.25 c -0.12 0 -0.22 -0.099 -0.22 -0.22 v -0.483 c 0 -0.121 -0.099 -0.22 -0.22 -0.22 h -0.404 c -0.121 0 -0.22 -0.1 -0.22 -0.22 v -0.483 a 0.22 0.22 0 0 0 -0.22 -0.22 h -1.25 a 0.22 0.22 0 0 0 -0.22 0.22 v 0.483 c 0 0.12 -0.1 0.22 -0.22 0.22 h -0.405 a 0.22 0.22 0 0 0 -0.22 0.22 v 0.483 c 0 0.121 0.099 0.22 0.22 0.22 h 0.404 c 0.122 0 0.22 0.1 0.22 0.22 v 0.484 c 0 0.121 0.1 0.22 0.221 0.22 h 0.404 a 0.22 0.22 0 0 1 0.22 0.22 v 0.484 c 0 0.12 0.1 0.22 0.221 0.22 h 1.25 c 0.12 0 0.22 0.099 0.22 0.22 v 0.483 c 0 0.121 0.099 0.22 0.22 0.22 h 0.404 c 0.12 0 0.22 0.1 0.22 0.221 v 0.483 c 0 0.121 0.1 0.22 0.22 0.22 h 0.405 c 0.12 0 0.22 0.1 0.22 0.22 v 0.484 c 0 0.12 0.1 0.22 0.22 0.22 h 0.405 c 0.12 0 0.22 0.099 0.22 0.22 v 3.254 c 0 0.121 -0.1 0.22 -0.22 0.22 h -0.404 a 0.22 0.22 0 0 0 -0.22 0.22 v 0.484 c 0 0.121 -0.1 0.22 -0.221 0.22 h -0.404 c -0.122 0 -0.22 0.1 -0.22 0.22 v 0.483 c 0 0.122 -0.1 0.22 -0.221 0.22 h -4.629 Z m -43.725 0 c -0.121 0 -0.22 -0.1 -0.22 -0.22 V 30.758 c 0 -0.121 0.099 -0.22 0.22 -0.22 h 2.094 a 0.22 0.22 0 0 1 0.22 0.22 v 1.407 c 0 0.121 0.1 0.22 0.22 0.22 h 0.405 c 0.12 0 0.22 -0.099 0.22 -0.22 v -0.483 c 0 -0.121 0.1 -0.22 0.22 -0.22 h 0.404 c 0.121 0 0.22 -0.1 0.22 -0.22 v -0.484 c 0 -0.121 0.1 -0.22 0.221 -0.22 h 2.939 a 0.22 0.22 0 0 1 0.22 0.22 v 0.483 c 0 0.122 0.1 0.22 0.22 0.22 h 0.405 a 0.22 0.22 0 0 1 0.22 0.221 v 0.483 c 0 0.121 0.1 0.22 0.22 0.22 h 0.405 a 0.22 0.22 0 0 1 0.22 0.221 v 1.406 c 0 0.121 -0.1 0.22 -0.22 0.22 h -0.404 c -0.122 0 -0.22 0.1 -0.22 0.22 v 0.484 c 0 0.121 -0.1 0.22 -0.221 0.22 h -0.404 c -0.122 0 -0.22 -0.099 -0.22 -0.22 v -0.483 c 0 -0.121 -0.1 -0.22 -0.221 -0.22 h -0.404 c -0.121 0 -0.22 -0.1 -0.22 -0.22 v -0.484 a 0.22 0.22 0 0 0 -0.22 -0.22 h -2.095 a 0.221 0.221 0 0 0 -0.22 0.22 v 0.483 c 0 0.121 -0.1 0.22 -0.22 0.22 h -0.405 c -0.12 0 -0.22 0.1 -0.22 0.22 v 0.484 c 0 0.121 -0.1 0.22 -0.22 0.22 h -0.405 a 0.221 0.221 0 0 0 -0.22 0.22 v 8.796 c 0 0.122 -0.1 0.22 -0.22 0.22 h -2.094 Z M 89.37 32.387 c 0.121 0 0.22 -0.1 0.22 -0.22 v -0.484 a 0.22 0.22 0 0 0 -0.22 -0.22 h -1.25 a 0.221 0.221 0 0 0 -0.22 0.22 v 0.483 c 0 0.121 0.1 0.22 0.22 0.22 h 1.25 Z m 0.845 9.236 c 0.12 0 0.22 -0.1 0.22 -0.22 v -0.483 c 0 -0.122 0.1 -0.22 0.22 -0.22 h 0.404 c 0.122 0 0.22 -0.1 0.22 -0.221 v -6.025 c 0 -0.121 -0.098 -0.22 -0.22 -0.22 h -0.404 c -0.12 0 -0.22 -0.1 -0.22 -0.22 v -0.484 a 0.22 0.22 0 0 0 -0.22 -0.22 h -2.94 a 0.221 0.221 0 0 0 -0.22 0.22 v 0.483 c 0 0.121 -0.099 0.22 -0.22 0.22 h -0.404 c -0.121 0 -0.22 0.1 -0.22 0.22 v 6.026 c 0 0.121 0.099 0.22 0.22 0.22 h 0.404 a 0.22 0.22 0 0 1 0.22 0.22 v 0.483 c 0 0.121 0.1 0.22 0.22 0.22 h 2.94 Z m -2.94 2.77 c -0.12 0 -0.22 -0.098 -0.22 -0.22 v -0.483 c 0 -0.12 -0.099 -0.22 -0.22 -0.22 h -1.249 c -0.121 0 -0.22 -0.099 -0.22 -0.22 v -0.483 c 0 -0.122 -0.1 -0.22 -0.22 -0.22 h -0.405 c -0.121 0 -0.22 -0.1 -0.22 -0.22 V 40.92 c 0 -0.122 -0.1 -0.22 -0.22 -0.22 h -0.405 c -0.12 0 -0.22 -0.1 -0.22 -0.221 v -6.025 c 0 -0.121 0.1 -0.22 0.22 -0.22 h 0.405 c 0.12 0 0.22 -0.1 0.22 -0.22 v -1.407 c 0 -0.121 0.099 -0.22 0.22 -0.22 h 0.405 c 0.12 0 0.22 -0.1 0.22 -0.22 v -0.484 c 0 -0.121 0.099 -0.22 0.22 -0.22 h 1.25 c 0.12 0 0.22 -0.1 0.22 -0.22 v -0.484 c 0 -0.121 0.099 -0.22 0.22 -0.22 h 2.939 a 0.22 0.22 0 0 1 0.22 0.22 v 0.483 c 0 0.122 0.1 0.22 0.22 0.22 h 1.25 a 0.22 0.22 0 0 1 0.22 0.221 v 0.483 c 0 0.121 0.1 0.22 0.22 0.22 h 0.404 a 0.22 0.22 0 0 1 0.22 0.221 v 1.406 c 0 0.121 0.1 0.22 0.221 0.22 h 0.404 c 0.121 0 0.22 0.1 0.22 0.22 v 6.026 c 0 0.121 -0.099 0.22 -0.22 0.22 h -0.404 a 0.22 0.22 0 0 0 -0.22 0.22 v 1.407 c 0 0.121 -0.1 0.22 -0.22 0.22 h -0.405 a 0.221 0.221 0 0 0 -0.22 0.22 v 0.484 c 0 0.121 -0.1 0.22 -0.22 0.22 h -1.25 c -0.12 0 -0.22 0.1 -0.22 0.22 v 0.483 c 0 0.122 -0.1 0.22 -0.22 0.22 h -2.94 Z m -23.277 -4.397 a 0.22 0.22 0 0 0 -0.22 -0.22 h -0.405 a 0.22 0.22 0 0 0 -0.22 0.22 v 1.406 c 0 0.121 0.099 0.22 0.22 0.22 h 0.404 c 0.122 0 0.22 -0.099 0.22 -0.22 v -1.406 Z m -0.845 -2.77 a 0.22 0.22 0 0 0 -0.22 -0.221 h -0.405 a 0.22 0.22 0 0 0 -0.22 0.22 v 1.407 c 0 0.12 0.099 0.22 0.22 0.22 h 0.404 c 0.122 0 0.22 -0.1 0.22 -0.22 v -1.407 Z m -0.845 -2.772 c 0 -0.121 -0.1 -0.22 -0.22 -0.22 h -0.405 c -0.12 0 -0.22 0.099 -0.22 0.22 v 0.483 c 0 0.121 0.1 0.22 0.22 0.22 h 0.404 c 0.122 0 0.22 -0.099 0.22 -0.22 v -0.483 Z m -0.845 -2.77 a 0.22 0.22 0 0 0 -0.22 -0.221 h -0.404 a 0.22 0.22 0 0 0 -0.22 0.22 v 0.483 c 0 0.121 0.098 0.22 0.22 0.22 h 0.404 c 0.12 0 0.22 -0.099 0.22 -0.22 v -0.483 Z m 7.384 4.397 a 0.22 0.22 0 0 1 0.22 0.22 v 2.33 c 0 0.122 0.1 0.22 0.22 0.22 h 0.405 c 0.12 0 0.22 0.1 0.22 0.221 v 2.33 c 0 0.121 0.1 0.22 0.22 0.22 h 0.405 c 0.12 0 0.22 -0.099 0.22 -0.22 v -2.33 c 0 -0.121 0.1 -0.22 0.22 -0.22 h 0.404 c 0.122 0 0.22 -0.1 0.22 -0.22 v -2.33 c 0 -0.122 0.1 -0.22 0.221 -0.22 h 0.404 c 0.121 0 0.22 -0.1 0.22 -0.221 v -2.33 c 0 -0.122 0.1 -0.22 0.22 -0.22 h 0.405 c 0.121 0 0.22 -0.1 0.22 -0.221 v -2.33 c 0 -0.122 0.1 -0.22 0.22 -0.22 h 2.095 c 0.12 0 0.22 0.098 0.22 0.22 v 2.33 c 0 0.12 -0.1 0.22 -0.22 0.22 h -0.404 a 0.22 0.22 0 0 0 -0.22 0.22 v 2.33 c 0 0.122 -0.1 0.221 -0.221 0.221 h -0.404 a 0.22 0.22 0 0 0 -0.22 0.22 v 3.254 c 0 0.122 -0.1 0.22 -0.22 0.22 h -0.405 a 0.22 0.22 0 0 0 -0.22 0.221 v 2.33 c 0 0.121 -0.1 0.22 -0.22 0.22 h -0.405 a 0.22 0.22 0 0 0 -0.22 0.22 v 1.407 c 0 0.122 -0.1 0.22 -0.22 0.22 h -2.94 c -0.12 0 -0.22 -0.098 -0.22 -0.22 v -1.406 a 0.22 0.22 0 0 0 -0.22 -0.22 h -0.405 c -0.12 0 -0.22 -0.1 -0.22 -0.22 v -2.33 a 0.22 0.22 0 0 0 -0.22 -0.221 h -0.404 a 0.22 0.22 0 0 0 -0.22 0.22 v 2.33 c 0 0.121 -0.1 0.22 -0.221 0.22 h -0.404 a 0.22 0.22 0 0 0 -0.22 0.22 v 1.407 c 0 0.122 -0.1 0.22 -0.221 0.22 h -2.939 c -0.121 0 -0.22 -0.098 -0.22 -0.22 v -1.406 a 0.22 0.22 0 0 0 -0.22 -0.22 h -0.405 c -0.121 0 -0.22 -0.1 -0.22 -0.22 v -2.33 a 0.22 0.22 0 0 0 -0.22 -0.221 h -0.405 c -0.12 0 -0.22 -0.1 -0.22 -0.22 V 36.3 a 0.22 0.22 0 0 0 -0.22 -0.22 h -0.404 c -0.122 0 -0.22 -0.1 -0.22 -0.22 v -2.33 a 0.22 0.22 0 0 0 -0.221 -0.22 h -0.404 c -0.122 0 -0.22 -0.1 -0.22 -0.221 v -2.33 c 0 -0.122 0.098 -0.22 0.22 -0.22 h 2.093 a 0.22 0.22 0 0 1 0.22 0.22 v 2.33 c 0 0.12 0.1 0.22 0.221 0.22 h 0.404 a 0.22 0.22 0 0 1 0.22 0.22 v 2.33 c 0 0.122 0.1 0.221 0.221 0.221 h 0.404 a 0.22 0.22 0 0 1 0.22 0.22 v 2.33 c 0 0.122 0.1 0.22 0.221 0.22 h 0.404 c 0.121 0 0.22 0.1 0.22 0.221 v 2.33 c 0 0.121 0.1 0.22 0.22 0.22 h 0.405 c 0.121 0 0.22 -0.099 0.22 -0.22 v -2.33 c 0 -0.121 0.1 -0.22 0.22 -0.22 h 0.405 c 0.121 0 0.22 -0.1 0.22 -0.22 v -2.33 c 0 -0.122 0.1 -0.22 0.22 -0.22 h 0.405 c 0.121 0 0.22 -0.1 0.22 -0.221 v -1.407 c 0 -0.121 0.1 -0.22 0.22 -0.22 h 0.405 c 0.121 0 0.22 0.099 0.22 0.22 v 1.407 c 0 0.12 0.1 0.22 0.22 0.22 h 0.405 Z m -23.779 8.313 c -0.121 0 -0.22 -0.1 -0.22 -0.22 V 33.53 a 0.22 0.22 0 0 0 -0.22 -0.22 h -1.25 c -0.12 0 -0.22 -0.1 -0.22 -0.22 v -2.33 c 0 -0.122 0.1 -0.22 0.22 -0.22 h 1.25 c 0.12 0 0.22 -0.1 0.22 -0.221 V 26.14 c 0 -0.121 0.099 -0.22 0.22 -0.22 h 2.094 a 0.22 0.22 0 0 1 0.22 0.22 v 4.178 c 0 0.121 0.1 0.22 0.22 0.22 h 2.94 a 0.22 0.22 0 0 1 0.22 0.22 v 2.33 c 0 0.122 -0.1 0.221 -0.22 0.221 h -2.94 a 0.22 0.22 0 0 0 -0.22 0.22 v 10.643 c 0 0.122 -0.099 0.22 -0.22 0.22 h -2.094 Z M 28.25 36.08 c 0.121 0 0.22 -0.1 0.22 -0.22 v -1.407 c 0 -0.121 -0.099 -0.22 -0.22 -0.22 h -0.405 c -0.12 0 -0.22 -0.1 -0.22 -0.22 v -0.484 a 0.22 0.22 0 0 0 -0.22 -0.22 h -2.94 a 0.22 0.22 0 0 0 -0.22 0.22 v 0.483 c 0 0.121 -0.099 0.22 -0.22 0.22 h -0.404 c -0.121 0 -0.22 0.1 -0.22 0.22 v 1.408 c 0 0.12 0.099 0.22 0.22 0.22 h 4.629 Z m -3.784 8.313 c -0.121 0 -0.22 -0.1 -0.22 -0.22 v -0.484 c 0 -0.12 -0.1 -0.22 -0.22 -0.22 h -1.25 c -0.121 0 -0.22 -0.099 -0.22 -0.22 v -0.483 a 0.22 0.22 0 0 0 -0.22 -0.22 h -0.405 c -0.12 0 -0.22 -0.1 -0.22 -0.22 V 40.92 a 0.22 0.22 0 0 0 -0.22 -0.22 h -0.405 c -0.12 0 -0.22 -0.1 -0.22 -0.221 v -6.025 c 0 -0.121 0.1 -0.22 0.22 -0.22 h 0.405 c 0.12 0 0.22 -0.1 0.22 -0.22 v -1.407 c 0 -0.121 0.1 -0.22 0.22 -0.22 h 0.404 c 0.122 0 0.22 -0.1 0.22 -0.22 v -0.484 c 0 -0.121 0.1 -0.22 0.221 -0.22 h 1.25 c 0.12 0 0.22 -0.1 0.22 -0.22 v -0.484 c 0 -0.121 0.099 -0.22 0.22 -0.22 h 2.939 a 0.22 0.22 0 0 1 0.22 0.22 v 0.483 c 0 0.122 0.1 0.22 0.22 0.22 h 1.25 a 0.22 0.22 0 0 1 0.22 0.221 v 0.483 c 0 0.121 0.1 0.22 0.22 0.22 h 0.405 a 0.22 0.22 0 0 1 0.22 0.221 v 1.406 c 0 0.121 0.1 0.22 0.22 0.22 h 0.404 c 0.122 0 0.22 0.1 0.22 0.22 v 3.255 c 0 0.121 -0.098 0.22 -0.22 0.22 h -7.163 a 0.22 0.22 0 0 0 -0.22 0.22 v 2.33 c 0 0.122 0.099 0.221 0.22 0.221 h 0.404 a 0.22 0.22 0 0 1 0.22 0.22 v 0.483 c 0 0.121 0.1 0.22 0.22 0.22 h 2.94 c 0.121 0 0.22 -0.099 0.22 -0.22 v -0.482 c 0 -0.122 0.1 -0.22 0.22 -0.22 h 0.405 c 0.121 0 0.22 -0.1 0.22 -0.221 v -0.483 c 0 -0.121 0.1 -0.22 0.22 -0.22 h 2.094 a 0.22 0.22 0 0 1 0.22 0.22 v 1.406 c 0 0.121 -0.098 0.22 -0.22 0.22 h -0.404 a 0.22 0.22 0 0 0 -0.22 0.221 v 0.483 c 0 0.121 -0.1 0.22 -0.22 0.22 h -0.405 a 0.22 0.22 0 0 0 -0.22 0.22 v 0.484 c 0 0.121 -0.1 0.22 -0.22 0.22 h -1.25 c -0.12 0 -0.22 0.1 -0.22 0.22 v 0.483 c 0 0.122 -0.099 0.22 -0.22 0.22 h -2.94 Z M 9.073 43.47 c 0.121 0 0.22 -0.099 0.22 -0.22 v -7.872 c 0 -0.122 -0.099 -0.22 -0.22 -0.22 H 8.67 a 0.22 0.22 0 0 0 -0.22 0.22 v 7.872 c 0 0.121 0.1 0.22 0.22 0.22 h 0.404 Z M 5.914 31.683 c 0 -0.121 -0.1 -0.22 -0.22 -0.22 H 5.29 a 0.22 0.22 0 0 0 -0.22 0.22 v 0.483 c 0 0.121 0.099 0.22 0.22 0.22 h 0.404 c 0.12 0 0.22 -0.099 0.22 -0.22 v -0.483 Z M 0.22 44.393 a 0.22 0.22 0 0 1 -0.22 -0.22 V 30.76 a 0.22 0.22 0 0 1 0.22 -0.22 h 2.094 a 0.22 0.22 0 0 1 0.22 0.22 v 1.407 c 0 0.121 0.1 0.22 0.221 0.22 h 0.404 c 0.122 0 0.22 -0.099 0.22 -0.22 v -0.483 a 0.22 0.22 0 0 1 0.221 -0.22 h 0.404 c 0.121 0 0.22 -0.1 0.22 -0.22 v -0.484 c 0 -0.121 0.1 -0.22 0.22 -0.22 H 6.54 c 0.12 0 0.22 0.099 0.22 0.22 v 0.483 c 0 0.122 0.1 0.22 0.22 0.22 h 1.25 c 0.12 0 0.22 0.1 0.22 0.221 v 0.483 c 0 0.121 0.1 0.22 0.22 0.22 h 0.404 c 0.121 0 0.22 0.1 0.22 0.221 v 1.406 c 0 0.121 0.1 0.22 0.221 0.22 h 0.404 c 0.121 0 0.22 0.1 0.22 0.22 v 9.72 c 0 0.122 -0.099 0.22 -0.22 0.22 H 7.824 c -0.12 0 -0.22 -0.098 -0.22 -0.22 v -9.72 c 0 -0.12 -0.1 -0.22 -0.22 -0.22 H 6.98 c -0.122 0 -0.22 -0.099 -0.22 -0.22 v -0.483 c 0 -0.121 -0.1 -0.22 -0.221 -0.22 H 4.445 a 0.22 0.22 0 0 0 -0.22 0.22 v 0.483 c 0 0.121 -0.1 0.22 -0.22 0.22 H 3.6 a 0.22 0.22 0 0 0 -0.22 0.22 v 0.484 c 0 0.121 -0.1 0.22 -0.22 0.22 h -0.405 a 0.22 0.22 0 0 0 -0.22 0.22 v 8.796 c 0 0.122 -0.1 0.22 -0.22 0.22 H 0.22 Z M 49.388 5.75 a 0.22 0.22 0 0 0 -0.22 -0.22 h -1.25 a 0.221 0.221 0 0 0 -0.22 0.22 v 0.483 c 0 0.12 0.1 0.22 0.22 0.22 h 1.25 c 0.121 0 0.22 -0.1 0.22 -0.22 v -0.483 Z m -6.538 12.71 c -0.122 0 -0.22 -0.1 -0.22 -0.22 V 4.825 c 0 -0.122 0.098 -0.22 0.22 -0.22 h 2.094 a 0.22 0.22 0 0 1 0.22 0.22 v 1.407 c 0 0.12 0.1 0.22 0.22 0.22 h 0.404 c 0.122 0 0.22 -0.1 0.22 -0.22 v -0.483 c 0 -0.122 0.1 -0.22 0.221 -0.22 h 0.404 c 0.122 0 0.22 -0.1 0.22 -0.221 v -0.483 c 0 -0.122 0.1 -0.22 0.221 -0.22 h 2.939 a 0.22 0.22 0 0 1 0.22 0.22 v 0.483 c 0 0.121 0.1 0.22 0.22 0.22 h 0.405 a 0.22 0.22 0 0 1 0.22 0.22 v 0.484 c 0 0.12 0.1 0.22 0.22 0.22 h 0.405 c 0.12 0 0.22 0.099 0.22 0.22 V 8.08 c 0 0.12 -0.1 0.22 -0.22 0.22 h -0.405 c -0.12 0 -0.22 0.1 -0.22 0.22 v 0.484 c 0 0.12 -0.1 0.22 -0.22 0.22 h -0.404 c -0.122 0 -0.22 -0.1 -0.22 -0.22 v -0.484 c 0 -0.12 -0.1 -0.22 -0.221 -0.22 h -0.404 c -0.121 0 -0.22 -0.1 -0.22 -0.22 v -0.483 a 0.22 0.22 0 0 0 -0.221 -0.22 h -2.094 a 0.221 0.221 0 0 0 -0.22 0.22 v 0.483 c 0 0.12 -0.1 0.22 -0.22 0.22 h -0.405 c -0.121 0 -0.22 0.1 -0.22 0.22 v 0.484 c 0 0.12 -0.1 0.22 -0.22 0.22 h -0.405 a 0.221 0.221 0 0 0 -0.22 0.22 v 8.796 c 0 0.12 -0.1 0.22 -0.22 0.22 H 42.85 Z m -19.969 0 c -0.121 0 -0.22 -0.1 -0.22 -0.22 v -0.483 c 0 -0.121 -0.1 -0.22 -0.22 -0.22 h -0.405 c -0.121 0 -0.22 -0.1 -0.22 -0.22 v -0.484 c 0 -0.121 -0.1 -0.22 -0.22 -0.22 h -0.405 c -0.12 0 -0.22 -0.1 -0.22 -0.22 V 4.825 c 0 -0.122 0.1 -0.22 0.22 -0.22 h 2.094 c 0.121 0 0.22 0.098 0.22 0.22 v 9.72 c 0 0.12 0.1 0.22 0.221 0.22 h 0.404 c 0.121 0 0.22 0.099 0.22 0.22 v 0.483 c 0 0.12 0.1 0.22 0.221 0.22 h 2.094 c 0.12 0 0.22 -0.1 0.22 -0.22 v -0.483 c 0 -0.121 0.1 -0.22 0.22 -0.22 h 0.405 c 0.12 0 0.22 -0.1 0.22 -0.22 v -0.483 c 0 -0.122 0.1 -0.22 0.22 -0.22 h 0.404 c 0.122 0 0.22 -0.1 0.22 -0.221 V 4.825 c 0 -0.122 0.1 -0.22 0.221 -0.22 h 2.094 a 0.22 0.22 0 0 1 0.22 0.22 v 13.414 c 0 0.12 -0.099 0.22 -0.22 0.22 h -2.094 c -0.12 0 -0.22 -0.1 -0.22 -0.22 v -1.407 a 0.22 0.22 0 0 0 -0.22 -0.22 h -0.405 a 0.221 0.221 0 0 0 -0.22 0.22 v 0.483 c 0 0.121 -0.1 0.22 -0.22 0.22 h -0.405 a 0.221 0.221 0 0 0 -0.22 0.22 v 0.484 c 0 0.12 -0.1 0.22 -0.22 0.22 H 22.88 Z M 9.112 13.841 c 0.121 0 0.22 -0.1 0.22 -0.22 V 9.443 a 0.22 0.22 0 0 0 -0.22 -0.22 h -0.404 a 0.221 0.221 0 0 0 -0.22 0.22 v 4.178 c 0 0.12 0.099 0.22 0.22 0.22 h 0.404 Z m -2.535 1.847 c 0.122 0 0.22 -0.1 0.22 -0.22 v -0.483 c 0 -0.121 0.1 -0.22 0.221 -0.22 h 0.404 c 0.121 0 0.22 -0.1 0.22 -0.22 V 8.518 c 0 -0.12 -0.099 -0.22 -0.22 -0.22 h -0.404 c -0.12 0 -0.22 -0.1 -0.22 -0.22 v -0.483 a 0.22 0.22 0 0 0 -0.22 -0.22 h -2.94 a 0.22 0.22 0 0 0 -0.22 0.22 v 0.483 c 0 0.12 -0.099 0.22 -0.22 0.22 h -0.404 c -0.121 0 -0.22 0.1 -0.22 0.22 v 6.025 c 0 0.121 0.099 0.22 0.22 0.22 h 0.404 c 0.121 0 0.22 0.1 0.22 0.22 v 0.484 c 0 0.12 0.1 0.22 0.22 0.22 h 2.94 Z M 3.64 18.459 c -0.121 0 -0.22 -0.1 -0.22 -0.22 v -0.483 c 0 -0.121 -0.1 -0.22 -0.22 -0.22 h -1.25 c -0.121 0 -0.22 -0.1 -0.22 -0.22 v -0.484 c 0 -0.121 -0.1 -0.22 -0.22 -0.22 h -0.405 c -0.121 0 -0.22 -0.1 -0.22 -0.22 v -1.407 c 0 -0.121 -0.1 -0.22 -0.22 -0.22 H 0.258 c -0.12 0 -0.22 -0.1 -0.22 -0.22 V 8.518 c 0 -0.12 0.1 -0.22 0.22 -0.22 h 0.404 c 0.121 0 0.22 -0.1 0.22 -0.22 V 6.672 c 0 -0.121 0.1 -0.22 0.221 -0.22 h 0.404 c 0.121 0 0.22 -0.1 0.22 -0.22 v -0.483 c 0 -0.122 0.1 -0.22 0.221 -0.22 h 1.25 c 0.12 0 0.22 -0.1 0.22 -0.221 v -0.483 c 0 -0.122 0.099 -0.22 0.22 -0.22 h 2.938 a 0.22 0.22 0 0 1 0.22 0.22 v 0.483 c 0 0.121 0.1 0.22 0.221 0.22 h 1.25 a 0.22 0.22 0 0 1 0.22 0.22 v 0.484 c 0 0.12 0.099 0.22 0.22 0.22 h 0.404 c 0.121 0 0.22 0.099 0.22 0.22 V 8.08 c 0 0.12 0.1 0.22 0.22 0.22 h 0.405 c 0.121 0 0.22 0.1 0.22 0.22 v 6.025 c 0 0.121 -0.099 0.22 -0.22 0.22 h -0.404 a 0.221 0.221 0 0 0 -0.22 0.22 v 1.408 c 0 0.12 -0.1 0.22 -0.221 0.22 h -0.404 a 0.221 0.221 0 0 0 -0.22 0.22 v 0.483 c 0 0.121 -0.1 0.22 -0.22 0.22 h -1.25 a 0.221 0.221 0 0 0 -0.22 0.22 v 0.484 c 0 0.12 -0.1 0.22 -0.22 0.22 h -2.94 Z M 141.078 1.592 c 0 0.121 -0.1 0.22 -0.22 0.22 h -0.482 c -0.121 0 -0.22 -0.099 -0.22 -0.22 V 1.11 c 0 -0.121 0.099 -0.22 0.22 -0.22 h 0.482 c 0.12 0 0.22 0.099 0.22 0.22 v 0.482 Z M 139.773 0 c -0.121 0 -0.22 0.1 -0.22 0.22 v 3.254 c 0 0.121 -0.1 0.22 -0.22 0.22 h -2.596 c -0.12 0 -0.22 0.1 -0.22 0.22 V 7.17 c 0 0.12 -0.1 0.22 -0.22 0.22 h -2.595 c -0.12 0 -0.22 0.1 -0.22 0.22 v 10.643 c 0 0.122 0.1 0.22 0.22 0.22 h 2.595 c 0.12 0 0.22 -0.098 0.22 -0.22 V 15 c 0 -0.122 0.1 -0.22 0.22 -0.22 h 2.595 c 0.121 0 0.22 -0.1 0.22 -0.221 v -3.254 c 0 -0.121 0.1 -0.22 0.22 -0.22 h 2.596 c 0.12 0 0.22 -0.1 0.22 -0.22 V 0.22 c 0 -0.12 -0.1 -0.22 -0.22 -0.22 h -2.595 Z m -13.271 1.592 c 0 0.121 -0.1 0.22 -0.22 0.22 h -0.482 c -0.121 0 -0.22 -0.099 -0.22 -0.22 V 1.11 c 0 -0.121 0.099 -0.22 0.22 -0.22 h 0.481 c 0.122 0 0.22 0.099 0.22 0.22 v 0.482 Z M 125.197 0 c -0.122 0 -0.22 0.1 -0.22 0.22 v 3.254 a 0.22 0.22 0 0 1 -0.221 0.22 h -2.595 c -0.121 0 -0.22 0.1 -0.22 0.22 V 7.17 c 0 0.12 -0.1 0.22 -0.22 0.22 h -2.595 c -0.121 0 -0.22 0.1 -0.22 0.22 v 10.643 c 0 0.122 0.099 0.22 0.22 0.22 h 2.594 c 0.122 0 0.22 -0.098 0.22 -0.22 V 15 c 0 -0.122 0.1 -0.22 0.221 -0.22 h 2.595 c 0.121 0 0.22 -0.1 0.22 -0.221 v -3.254 c 0 -0.121 0.1 -0.22 0.22 -0.22 h 2.595 c 0.122 0 0.22 -0.1 0.22 -0.22 V 0.22 a 0.22 0.22 0 0 0 -0.22 -0.22 h -2.594 Z m -13.335 1.592 c 0 0.121 -0.099 0.22 -0.22 0.22 h -0.481 a 0.22 0.22 0 0 1 -0.22 -0.22 V 1.11 c 0 -0.121 0.098 -0.22 0.22 -0.22 h 0.481 c 0.121 0 0.22 0.099 0.22 0.22 v 0.482 Z M 110.557 0 c -0.12 0 -0.22 0.1 -0.22 0.22 v 3.254 c 0 0.121 -0.1 0.22 -0.22 0.22 h -2.595 c -0.121 0 -0.22 0.1 -0.22 0.22 V 7.17 a 0.22 0.22 0 0 1 -0.22 0.22 h -2.595 c -0.121 0 -0.22 0.1 -0.22 0.22 v 10.643 c 0 0.122 0.099 0.22 0.22 0.22 h 2.594 c 0.122 0 0.22 -0.098 0.22 -0.22 V 15 c 0 -0.122 0.1 -0.22 0.22 -0.22 h 2.596 c 0.12 0 0.22 -0.1 0.22 -0.221 v -3.254 c 0 -0.121 0.1 -0.22 0.22 -0.22 h 2.595 c 0.122 0 0.22 -0.1 0.22 -0.22 V 0.22 a 0.22 0.22 0 0 0 -0.22 -0.22 h -2.595 Z M 97.223 1.592 c 0 0.121 -0.099 0.22 -0.22 0.22 h -0.482 c -0.12 0 -0.22 -0.099 -0.22 -0.22 V 1.11 c 0 -0.121 0.1 -0.22 0.22 -0.22 h 0.482 c 0.121 0 0.22 0.099 0.22 0.22 v 0.482 Z M 95.918 0 c -0.121 0 -0.22 0.1 -0.22 0.22 v 3.254 a 0.22 0.22 0 0 1 -0.22 0.22 h -2.595 c -0.121 0 -0.22 0.1 -0.22 0.22 V 7.17 a 0.22 0.22 0 0 1 -0.221 0.22 h -2.594 c -0.121 0 -0.22 0.1 -0.22 0.22 v 10.643 c 0 0.122 0.099 0.22 0.22 0.22 h 2.594 c 0.121 0 0.22 -0.098 0.22 -0.22 V 15 c 0 -0.122 0.1 -0.22 0.22 -0.22 h 2.595 c 0.122 0 0.22 -0.1 0.22 -0.221 v -3.254 c 0 -0.121 0.1 -0.22 0.221 -0.22 h 2.595 c 0.121 0 0.22 -0.1 0.22 -0.22 V 0.22 c 0 -0.12 -0.099 -0.22 -0.22 -0.22 h -2.595 Z M 82.584 1.592 c 0 0.121 -0.1 0.22 -0.22 0.22 h -0.482 a 0.22 0.22 0 0 1 -0.22 -0.22 V 1.11 c 0 -0.121 0.099 -0.22 0.22 -0.22 h 0.482 c 0.12 0 0.22 0.099 0.22 0.22 v 0.482 Z M 81.28 0 a 0.22 0.22 0 0 0 -0.22 0.22 v 3.254 c 0 0.121 -0.1 0.22 -0.22 0.22 h -2.596 c -0.12 0 -0.22 0.1 -0.22 0.22 V 7.17 a 0.22 0.22 0 0 1 -0.22 0.22 h -2.595 c -0.12 0 -0.22 0.1 -0.22 0.22 v 10.643 c 0 0.122 0.1 0.22 0.22 0.22 h 2.595 c 0.121 0 0.22 -0.098 0.22 -0.22 V 15 c 0 -0.122 0.1 -0.22 0.22 -0.22 h 2.596 c 0.12 0 0.22 -0.1 0.22 -0.221 v -3.254 a 0.22 0.22 0 0 1 0.22 -0.22 h 2.595 c 0.121 0 0.22 -0.1 0.22 -0.22 V 0.22 c 0 -0.12 -0.099 -0.22 -0.22 -0.22 h -2.595 Z M 67.631 7.49 c 0 0.12 -0.1 0.22 -0.22 0.22 h -0.377 c -0.121 0 -0.22 -0.1 -0.22 -0.22 v -0.442 c 0 -0.122 0.099 -0.22 0.22 -0.22 h 0.376 c 0.121 0 0.22 0.098 0.22 0.22 v 0.442 Z m -0.97 -1.148 c -0.12 0 -0.22 0.1 -0.22 0.22 V 9.38 c 0 0.12 0.1 0.22 0.22 0.22 h 2.574 c 0.12 0 0.22 -0.1 0.22 -0.22 V 6.563 c 0 -0.121 -0.1 -0.22 -0.22 -0.22 h -2.573 Z m 0.97 8.942 c 0 0.121 -0.1 0.22 -0.22 0.22 h -0.377 c -0.121 0 -0.22 -0.099 -0.22 -0.22 v -0.442 c 0 -0.121 0.099 -0.22 0.22 -0.22 h 0.376 c 0.121 0 0.22 0.099 0.22 0.22 v 0.442 Z m -0.97 -1.147 c -0.12 0 -0.22 0.1 -0.22 0.22 v 2.816 c 0 0.121 0.1 0.22 0.22 0.22 h 2.574 c 0.12 0 0.22 -0.099 0.22 -0.22 v -2.816 c 0 -0.12 -0.1 -0.22 -0.22 -0.22 h -2.573 Z" /></g></svg>